<svg width="30" height="30" viewBox="0 0 30 30" fill="none" xmlns="http://www.w3.org/2000/svg">
<path d="M15 30C10.875 30 7.34374 28.5312 4.40624 25.5937C1.46874 22.6562 0 19.125 0 15C0 10.875 1.46874 7.34375 4.40624 4.40625C7.34374 1.46875 10.875 0 15 0C19.125 0 22.6563 1.46875 25.5938 4.40625C28.5313 7.34375 30 10.875 30 15C30 19.125 28.5313 22.6562 25.5938 25.5937C22.6563 28.5312 19.125 30 15 30Z" fill="#352B1F"/>
<path d="M7 18C6.175 18 5.46875 17.7062 4.88125 17.1188C4.29375 16.5313 4 15.825 4 15C4 14.175 4.29375 13.4688 4.88125 12.8813C5.46875 12.2938 6.175 12 7 12C7.825 12 8.53125 12.2938 9.11875 12.8813C9.70625 13.4688 10 14.175 10 15C10 15.825 9.70625 16.5313 9.11875 17.1188C8.53125 17.7062 7.825 18 7 18Z" fill="#FCFADE"/>
<path d="M7 16C6.725 16 6.48958 15.9021 6.29375 15.7062C6.09792 15.5104 6 15.275 6 15C6 14.725 6.09792 14.4896 6.29375 14.2938C6.48958 14.0979 6.725 14 7 14C7.275 14 7.51042 14.0979 7.70625 14.2938C7.90208 14.4896 8 14.725 8 15C8 15.275 7.90208 15.5104 7.70625 15.7062C7.51042 15.9021 7.275 16 7 16Z" fill="#352B1F"/>
<path d="M23 18C22.175 18 21.4687 17.7062 20.8812 17.1188C20.2937 16.5313 20 15.825 20 15C20 14.175 20.2937 13.4688 20.8812 12.8813C21.4687 12.2938 22.175 12 23 12C23.825 12 24.5313 12.2938 25.1188 12.8813C25.7063 13.4688 26 14.175 26 15C26 15.825 25.7063 16.5313 25.1188 17.1188C24.5313 17.7062 23.825 18 23 18Z" fill="#FCFADE"/>
<path d="M15 18C14.175 18 13.4687 17.7062 12.8812 17.1188C12.2937 16.5313 12 15.825 12 15C12 14.175 12.2937 13.4688 12.8812 12.8813C13.4687 12.2938 14.175 12 15 12C15.825 12 16.5313 12.2938 17.1188 12.8813C17.7063 13.4688 18 14.175 18 15C18 15.825 17.7063 16.5313 17.1188 17.1188C16.5313 17.7062 15.825 18 15 18Z" fill="#FCFADE"/>
<path d="M15 16C14.725 16 14.4896 15.9021 14.2937 15.7062C14.0979 15.5104 14 15.275 14 15C14 14.725 14.0979 14.4896 14.2937 14.2938C14.4896 14.0979 14.725 14 15 14C15.275 14 15.5104 14.0979 15.7063 14.2938C15.9021 14.4896 16 14.725 16 15C16 15.275 15.9021 15.5104 15.7063 15.7062C15.5104 15.9021 15.275 16 15 16Z" fill="#352B1F"/>
<path d="M23 16C22.725 16 22.4896 15.9021 22.2937 15.7062C22.0979 15.5104 22 15.275 22 15C22 14.725 22.0979 14.4896 22.2937 14.2938C22.4896 14.0979 22.725 14 23 14C23.275 14 23.5104 14.0979 23.7063 14.2938C23.9021 14.4896 24 14.725 24 15C24 15.275 23.9021 15.5104 23.7063 15.7062C23.5104 15.9021 23.275 16 23 16Z" fill="#352B1F"/>
</svg>
