<svg width="27" height="32" viewBox="0 0 27 32" fill="none" xmlns="http://www.w3.org/2000/svg">
<path d="M23.8142 14.0465C24.9486 8.94163 17.0075 3.26927 11.9025 4.40371C6.79752 5.53815 -0.00902188 27.0927 1.1253 30.4959C2.25963 33.8991 22.6797 19.1513 23.8142 14.0465Z" fill="#352B1F" stroke="#352B1F"/>
<path d="M19.2762 6.67237L23.2468 1.56738" stroke="#352B1F" stroke-width="2" stroke-linecap="round"/>
<path d="M19.2763 6.67221L18.1418 1" stroke="#352B1F" stroke-width="2" stroke-linecap="round"/>
<path d="M19.2762 6.67204L25.5157 5.5376" stroke="#352B1F" stroke-width="2" stroke-linecap="round"/>
<path d="M11.3212 10.8891C11.7706 11.2101 12.3952 11.106 12.7162 10.6566C13.0372 10.2072 12.9331 9.58264 12.4837 9.26163L11.3212 10.8891ZM7.35065 8.05299L11.3212 10.8891L12.4837 9.26163L8.51312 6.42552L7.35065 8.05299Z" fill="#FCF9DA"/>
<path d="M6.78335 19.3974C7.23277 19.7184 7.85732 19.6143 8.17833 19.1649C8.49933 18.7155 8.39524 18.0909 7.94583 17.7699L6.78335 19.3974ZM2.8128 16.5613L6.78335 19.3974L7.94583 17.7699L3.97528 14.9338L2.8128 16.5613Z" fill="#FCF9DA"/>
<path d="M16.4517 17.2132C16.0013 16.8936 15.3771 16.9996 15.0575 17.45C14.7379 17.9004 14.8439 18.5246 15.2943 18.8442L16.4517 17.2132ZM20.431 20.037L16.4517 17.2132L15.2943 18.8442L19.2736 21.6681L20.431 20.037Z" fill="#FCF9DA"/>
<path d="M7.37629 24.0198C6.92589 23.7002 6.30166 23.8062 5.98204 24.2566C5.66242 24.707 5.76844 25.3313 6.21884 25.6509L7.37629 24.0198ZM11.3556 26.8437L7.37629 24.0198L6.21884 25.6509L10.1981 28.4747L11.3556 26.8437Z" fill="#FCF9DA"/>
</svg>
