<svg width="31" height="32" viewBox="0 0 31 32" fill="none" xmlns="http://www.w3.org/2000/svg">
<path d="M7.2069 24.793L1 30.9999" stroke="#352B1F" stroke-width="2" stroke-linecap="round"/>
<path d="M23.7587 2.61412C22.0788 4.24129 21.8064 5.7668 21.6897 8.82102L21.7647 8.82062C25.2311 8.80234 27.1977 8.79197 28.9311 5.71757C29.5617 4.33358 29.6525 3.28993 29.4483 1.0624C26.6784 0.852904 25.3858 1.12289 23.7587 2.61412Z" fill="#352B1F" stroke="#352B1F" stroke-width="0.5" stroke-linecap="round"/>
<path d="M24.5975 9.50131C22.2591 9.46407 20.9878 10.3501 18.7456 12.4273L18.7989 12.48C21.263 14.9182 22.6608 16.3015 26.0605 15.3532C27.485 14.8205 28.2872 14.1468 29.7179 12.4273C27.9074 10.3205 26.8025 9.59738 24.5975 9.50131Z" fill="#352B1F" stroke="#352B1F" stroke-width="0.5" stroke-linecap="round"/>
<path d="M18.9061 15.3975C16.5677 15.3587 15.2958 16.2439 13.0522 18.3196L13.1055 18.3724C15.5679 20.8122 16.9649 22.1964 20.3651 21.2504C21.7901 20.7187 22.5927 20.0454 24.0245 18.3269C22.2154 16.2189 21.111 15.4951 18.9061 15.3975Z" fill="#352B1F" stroke="#352B1F" stroke-width="0.5" stroke-linecap="round"/>
<path d="M13.0496 21.1897C10.7111 21.1598 9.44251 22.0498 7.20682 24.1339L7.2603 24.1865C9.73196 26.6171 11.1341 27.9959 14.5308 27.0371C15.9537 26.4999 16.7538 25.8237 18.1791 24.0997C16.362 21.9986 15.2549 21.2789 13.0496 21.1897Z" fill="#352B1F" stroke="#352B1F" stroke-width="0.5" stroke-linecap="round"/>
<path d="M14.9454 6.4722C15.1134 8.80485 16.1075 9.99358 18.3733 12.0449L18.4212 11.9872C20.6339 9.31878 21.8892 7.80497 20.6464 4.50161C19.9908 3.12925 19.2493 2.38927 17.411 1.11487C15.4711 3.10319 14.8477 4.26727 14.9454 6.4722Z" fill="#352B1F" stroke="#352B1F" stroke-width="0.5" stroke-linecap="round"/>
<path d="M9.78511 12.6201C9.89863 14.9561 10.8648 16.1677 13.0821 18.2713L13.1313 18.2147C15.4057 15.5987 16.6959 14.1146 15.5306 10.7831C14.9072 9.39581 14.1831 8.63872 12.375 7.32178C10.3893 9.26429 9.73889 10.4135 9.78511 12.6201Z" fill="#352B1F" stroke="#352B1F" stroke-width="0.5" stroke-linecap="round"/>
<path d="M4.60051 18.8858C4.76852 21.2184 5.76266 22.4072 8.02845 24.4585L8.07632 24.4008C10.289 21.7324 11.5443 20.2185 10.3016 16.9152C9.64598 15.5428 8.90446 14.8028 7.06611 13.5284C5.12624 15.5168 4.50283 16.6808 4.60051 18.8858Z" fill="#352B1F" stroke="#352B1F" stroke-width="0.5" stroke-linecap="round"/>
</svg>
