<svg width="30" height="27" viewBox="0 0 30 27" fill="none" xmlns="http://www.w3.org/2000/svg">
<path d="M22.4062 26H7.59377C6.66246 26 5.85166 25.3572 5.64224 24.4497L3 13C1.89543 13 1 12.1046 1 11C1 9.89543 1.89548 9 3.00005 9H6H24H27C28.1046 9 29 9.89543 29 11C29 12.1046 28.1046 13 27 13L24.3578 24.4497C24.1483 25.3572 23.3375 26 22.4062 26Z" fill="#FB9927"/>
<path d="M6 9C6 9 4.54405 9 3.00005 9C1.89548 9 1 9.89543 1 11V11C1 12.1046 1.89543 13 3 13H12M6 9C14.6595 9 15.3405 9 24 9M6 9L13 1M24 9H27C28.1046 9 29 9.89543 29 11V11C29 12.1046 28.1046 13 27 13V13M24 9L17 1M3 13L5.64224 24.4497C5.85166 25.3572 6.66246 26 7.59377 26C13.6717 26 16.3283 26 22.4062 26C23.3375 26 24.1483 25.3572 24.3578 24.4497L27 13M18 13H27" stroke="#FB9927" stroke-width="2" stroke-linecap="round"/>
<path d="M10 17V22" stroke="#FCF9DA" stroke-width="2" stroke-linecap="round"/>
<path d="M10 17V22" stroke="#FCF9DA" stroke-width="2" stroke-linecap="round"/>
<path d="M10 17V22" stroke="#FCF9DA" stroke-width="2" stroke-linecap="round"/>
<path d="M15 17V22" stroke="#FCF9DA" stroke-width="2" stroke-linecap="round"/>
<path d="M15 17V22" stroke="#FCF9DA" stroke-width="2" stroke-linecap="round"/>
<path d="M15 17V22" stroke="#FCF9DA" stroke-width="2" stroke-linecap="round"/>
<path d="M24 13L6 13" stroke="#FCF9DA" stroke-width="2" stroke-linecap="round"/>
<path d="M20 17V22" stroke="#FCF9DA" stroke-width="2" stroke-linecap="round"/>
<path d="M20 17V22" stroke="#FCF9DA" stroke-width="2" stroke-linecap="round"/>
<path d="M20 17V22" stroke="#FCF9DA" stroke-width="2" stroke-linecap="round"/>
</svg>
