<svg width="29" height="32" viewBox="0 0 29 32" fill="none" xmlns="http://www.w3.org/2000/svg">
<path d="M14.2681 1V31" stroke="#352B1F" stroke-width="2" stroke-linecap="round"/>
<path d="M10.2681 3L14.2681 6" stroke="#352B1F" stroke-width="2" stroke-linecap="round"/>
<path d="M14.2681 26L18.2681 29" stroke="#352B1F" stroke-width="2" stroke-linecap="round"/>
<path d="M14.2681 6L18.2681 3" stroke="#352B1F" stroke-width="2" stroke-linecap="round"/>
<path d="M10.2681 29L14.2681 26" stroke="#352B1F" stroke-width="2" stroke-linecap="round"/>
<path d="M1.26807 23.4639L27.2488 8.46387" stroke="#352B1F" stroke-width="2" stroke-linecap="round"/>
<path d="M5 25.9282L5.59808 20.9641" stroke="#352B1F" stroke-width="2" stroke-linecap="round"/>
<path d="M22.9187 10.9639L23.5168 5.99977" stroke="#352B1F" stroke-width="2" stroke-linecap="round"/>
<path d="M5.59814 20.9639L1.00007 18.9998" stroke="#352B1F" stroke-width="2" stroke-linecap="round"/>
<path d="M27.5168 12.9282L22.9188 10.9641" stroke="#352B1F" stroke-width="2" stroke-linecap="round"/>
<path d="M1.26807 8.46387L27.2488 23.4639" stroke="#352B1F" stroke-width="2" stroke-linecap="round"/>
<path d="M1 12.9282L5.59808 10.9641" stroke="#352B1F" stroke-width="2" stroke-linecap="round"/>
<path d="M22.9187 20.9639L27.5168 18.9998" stroke="#352B1F" stroke-width="2" stroke-linecap="round"/>
<path d="M5.59814 10.9639L5.00007 5.99977" stroke="#352B1F" stroke-width="2" stroke-linecap="round"/>
<path d="M23.5168 25.9282L22.9188 20.9641" stroke="#352B1F" stroke-width="2" stroke-linecap="round"/>
</svg>
