<svg width="32" height="32" viewBox="0 0 32 32" fill="none" xmlns="http://www.w3.org/2000/svg">
<path d="M1 28.1923V9.57693C1 9.30079 1.22386 9.07693 1.5 9.07693H30.5C30.7761 9.07693 31 9.30079 31 9.57694V28.1923C31 28.4685 30.7761 28.6923 30.5 28.6923H1.5C1.22386 28.6923 1 28.4685 1 28.1923Z" stroke="#352B1F"/>
<path d="M2.15381 6.76923V9.07692" stroke="#352B1F"/>
<path d="M29.8462 6.76923V9.07692" stroke="#352B1F"/>
<path d="M30.5 6.76923H1.5C1.22386 6.76923 1 6.54537 1 6.26923V1.5C1 1.22386 1.22386 1 1.5 1H30.5C30.7761 1 31 1.22386 31 1.5V6.26923C31 6.54537 30.7761 6.76923 30.5 6.76923Z" stroke="#352B1F"/>
<path d="M1 25.8077H31" stroke="#352B1F"/>
<path d="M5.61536 12.6923V12.3846C5.61536 11.8323 6.06307 11.3846 6.61536 11.3846H25.3846C25.9369 11.3846 26.3846 11.8323 26.3846 12.3846V12.6923C26.3846 13.2446 25.9369 13.6923 25.3846 13.6923H6.61536C6.06307 13.6923 5.61536 13.2446 5.61536 12.6923Z" stroke="#352B1F"/>
<path d="M27.0385 16H4.96155C4.68541 16 4.46155 16.2239 4.46155 16.5V23.5769C4.46155 23.8531 4.68541 24.0769 4.96155 24.0769H27.0385C27.3146 24.0769 27.5385 23.8531 27.5385 23.5769V16.5C27.5385 16.2239 27.3146 16 27.0385 16Z" stroke="#352B1F"/>
<path d="M3.30774 28.6923V30.5C3.30774 30.7762 3.5316 31 3.80774 31H5.11543C5.39157 31 5.61543 30.7762 5.61543 30.5V28.6923" stroke="#352B1F"/>
<path d="M26.3846 28.6923V30.5C26.3846 30.7762 26.6085 31 26.8846 31H28.1923C28.4685 31 28.6923 30.7762 28.6923 30.5V28.6923" stroke="#352B1F"/>
<path d="M10.8077 4.53845V3.80768C10.8077 3.53154 11.0316 3.30768 11.3077 3.30768H20.6924C20.9685 3.30768 21.1924 3.53154 21.1924 3.80768V4.53845C21.1924 4.81459 20.9685 5.03845 20.6924 5.03845H11.3077C11.0316 5.03845 10.8077 4.81459 10.8077 4.53845Z" stroke="#352B1F"/>
<path d="M7.34613 5.17989C7.00685 5.17989 6.72724 5.06299 6.48057 4.81173C6.23362 4.56017 6.11536 4.27099 6.11536 3.91686C6.11536 3.56274 6.23362 3.27355 6.48057 3.022C6.72724 2.77073 7.00685 2.65384 7.34613 2.65384C7.6854 2.65384 7.96501 2.77073 8.21168 3.022C8.45863 3.27355 8.57689 3.56273 8.57689 3.91686C8.57689 4.27099 8.45863 4.56017 8.21168 4.81173C7.96501 5.06299 7.6854 5.17989 7.34613 5.17989Z" stroke="#352B1F"/>
<path d="M24.6539 5.17989C24.3146 5.17989 24.035 5.06299 23.7883 4.81173C23.5414 4.56017 23.4231 4.27099 23.4231 3.91686C23.4231 3.56274 23.5414 3.27355 23.7883 3.022C24.035 2.77073 24.3146 2.65384 24.6539 2.65384C24.9931 2.65384 25.2727 2.77073 25.5194 3.022C25.7664 3.27355 25.8846 3.56273 25.8846 3.91686C25.8846 4.27099 25.7664 4.56017 25.5194 4.81173C25.2727 5.06299 24.9931 5.17989 24.6539 5.17989Z" stroke="#352B1F"/>
</svg>
