<svg width="27" height="28" viewBox="0 0 27 28" fill="none" xmlns="http://www.w3.org/2000/svg">
<path d="M0 4.95694V2.8134H8.93142V1.77315C8.93142 1.27076 9.07407 0.849634 9.35938 0.50978C9.64469 0.169927 9.99823 0 10.42 0H16.3743C16.796 0 17.1496 0.169927 17.4349 0.50978C17.7202 0.849634 17.8628 1.27076 17.8628 1.77315V2.8134H26.7943V4.95694H13.3971H0Z" fill="#352B1F"/>
<path d="M0 7.10059H13.3971H26.7943V22.6807C26.7943 24.1583 26.3601 25.4143 25.4918 26.4486C24.6234 27.4829 23.569 28.0001 22.3285 28.0001H4.46571C3.22523 28.0001 2.17083 27.4829 1.3025 26.4486C0.434166 25.4143 0 24.1583 0 22.6807V7.10059ZM2.14354 9.24413V22.5073C2.14354 23.0097 2.39412 24.311 2.67943 24.6508C2.96473 24.9907 4.4012 25.7226 4.82297 25.7226H13.3971H22.5072C22.9289 25.7226 23.8295 24.9907 24.1148 24.6508C24.4001 24.311 24.6507 23.0097 24.6507 22.5073V9.24413H2.14354Z" fill="#352B1F"/>
</svg>
