<svg width="28" height="30" viewBox="0 0 28 30" fill="none" xmlns="http://www.w3.org/2000/svg">
<path d="M14.3695 6.6C13.6136 6.6 12.9665 6.32583 12.4282 5.7775C11.8899 5.22917 11.6207 4.57 11.6207 3.8C11.6207 3.03 11.8899 2.37083 12.4282 1.8225C12.9665 1.27417 13.6136 1 14.3695 1C15.1254 1 15.7725 1.27417 16.3108 1.8225C16.8491 2.37083 17.1183 3.03 17.1183 3.8C17.1183 4.57 16.8491 5.22917 16.3108 5.7775C15.7725 6.32583 15.1254 6.6 14.3695 6.6ZM10.2463 29V10.8C8.87193 10.6833 7.47464 10.5083 6.05444 10.275C4.63424 10.0417 3.28276 9.75 2 9.4L2.68719 6.6C4.4739 7.09 6.37513 7.44583 8.3909 7.6675C10.4067 7.88917 12.3995 8 14.3695 8C16.3394 8 18.3323 7.88917 20.3481 7.6675C22.3638 7.44583 24.2651 7.09 26.0518 6.6L26.739 9.4C25.4562 9.75 24.1047 10.0417 22.6845 10.275C21.2643 10.5083 19.867 10.6833 18.4926 10.8V29H15.7439V20.6H12.9951V29H10.2463Z" stroke="#352B1F" stroke-width="2"/>
</svg>
