<svg width="32" height="17" viewBox="0 0 32 17" fill="none" xmlns="http://www.w3.org/2000/svg">
<path d="M0.999999 8.32758C7.74915 -2.37032 17.8293 -2.29052 31 14.8354" stroke="#352B1F" stroke-width="2" stroke-linecap="round"/>
<path d="M0.999999 8.67108C7.74915 19.3708 17.8293 19.291 31 2.16211" stroke="#352B1F" stroke-width="2" stroke-linecap="round"/>
<path d="M20.0244 3.87492L25.1464 8.32767L22.0366 11.7529L14.5366 15.8631H10.5122L6.67075 14.493L3.19514 11.7529L1.00002 8.32767L4.2927 3.87492L7.76831 1.8198L11.4268 1.13477L15.6342 1.8198L20.0244 3.87492Z" fill="#352B1F" stroke="#352B1F" stroke-linecap="round"/>
<path d="M7.5 9.19629C7.9125 9.19629 8.26563 9.04941 8.55938 8.75566C8.85313 8.46191 9 8.10879 9 7.69629C9 7.28379 8.85313 6.93066 8.55938 6.63691C8.26563 6.34316 7.9125 6.19629 7.5 6.19629C7.0875 6.19629 6.73437 6.34316 6.44062 6.63691C6.14687 6.93066 6 7.28379 6 7.69629C6 8.10879 6.14687 8.46191 6.44062 8.75566C6.73437 9.04941 7.0875 9.19629 7.5 9.19629Z" fill="#FCFADE"/>
</svg>
