<svg width="32" height="31" viewBox="0 0 32 31" fill="none" xmlns="http://www.w3.org/2000/svg">
<path d="M19.8235 20.5882C19.3101 20.5882 18.8831 20.4113 18.5153 20.0435C18.1475 19.6757 17.9706 19.2487 17.9706 18.7353C17.9706 18.2219 18.1475 17.7948 18.5153 17.4271C18.8831 17.0593 19.3101 16.8824 19.8235 16.8824C20.3369 16.8824 20.764 17.0593 21.1317 17.4271C21.4995 17.7948 21.6765 18.2219 21.6765 18.7353C21.6765 19.2487 21.4995 19.6757 21.1317 20.0435C20.764 20.4113 20.3369 20.5882 19.8235 20.5882Z" stroke="#352B1F"/>
<path d="M19.8235 27.6471C17.3689 27.6471 15.2801 26.7789 13.53 25.0288C11.7799 23.2787 10.9117 21.1899 10.9117 18.7353C10.9117 16.2807 11.7799 14.1919 13.53 12.4418C15.2801 10.6917 17.3689 9.82355 19.8235 9.82355C22.2781 9.82355 24.3669 10.6917 26.117 12.4418C27.8671 14.1919 28.7353 16.2807 28.7353 18.7353C28.7353 21.1899 27.8671 23.2787 26.117 25.0288C24.3669 26.7789 22.2781 27.6471 19.8235 27.6471Z" stroke="#352B1F"/>
<path d="M19.8236 30C16.7219 30 14.0792 28.9015 11.8683 26.6906C9.65737 24.4797 8.55884 21.8369 8.55884 18.7353C8.55884 15.6337 9.65737 12.9909 11.8683 10.78C14.0792 8.56912 16.7219 7.47058 19.8236 7.47058C22.9252 7.47058 25.5679 8.56912 27.7788 10.78C29.9897 12.9909 31.0882 15.6337 31.0882 18.7353C31.0882 21.8369 29.9897 24.4797 27.7788 26.6906C25.5679 28.9015 22.9252 30 19.8236 30Z" stroke="#352B1F"/>
<path d="M28.2131 5.67013L20.9443 3.59335C20.6594 3.51194 20.5074 3.20201 20.6175 2.92689L21.4206 0.91906C21.5158 0.681007 21.7757 0.553557 22.0222 0.623993L29.2909 2.70077C29.5758 2.78218 29.7278 3.0921 29.6178 3.36723L28.8147 5.37506C28.7194 5.61311 28.4596 5.74056 28.2131 5.67013Z" stroke="#352B1F" stroke-linecap="round"/>
<path d="M22.1765 4.02942L21 6.9706" stroke="#352B1F" stroke-linecap="round"/>
<path d="M26.8823 5.7941L25.7058 8.73527" stroke="#352B1F" stroke-linecap="round"/>
<path d="M16.2941 11.0883L16.8823 12.2647" stroke="#352B1F" stroke-linecap="round"/>
<path d="M11.5883 15.7941L13.353 16.3824" stroke="#352B1F" stroke-linecap="round"/>
<path d="M15.43 14.2272C15.2144 14.0547 14.8997 14.0897 14.7272 14.3053C14.5547 14.5209 14.5897 14.8356 14.8053 15.0081L15.43 14.2272ZM17.7465 17.361L18.1369 17.6734L18.7616 16.8925L18.3712 16.5802L17.7465 17.361ZM14.8053 15.0081L17.7465 17.361L18.3712 16.5802L15.43 14.2272L14.8053 15.0081Z" fill="#352B1F"/>
<path d="M20.4117 16.3824L22.7647 10.5" stroke="#352B1F" stroke-linecap="square"/>
<path d="M22.1764 19.3235L28.0587 21.6765" stroke="#352B1F" stroke-linecap="square"/>
<path d="M19.8235 21.0882V22.2647" stroke="#352B1F" stroke-linecap="round"/>
<path d="M12.1765 22.8529L13.353 22.2647" stroke="#352B1F" stroke-linecap="round"/>
<path d="M17.4706 26.9706L18.0588 25.7941" stroke="#352B1F" stroke-linecap="round"/>
<path d="M23.9411 26.3824L23.3529 25.2059" stroke="#352B1F" stroke-linecap="round"/>
<path d="M9.82361 8.23532C9.54747 8.23532 9.32361 8.45918 9.32361 8.73532C9.32361 9.01146 9.54747 9.23532 9.82361 9.23532V8.23532ZM13.9413 9.23532H14.4413V8.23532H13.9413V9.23532ZM9.82361 9.23532H13.9413V8.23532H9.82361V9.23532Z" fill="#352B1F"/>
<path d="M7.47049 8.73532H1.58813" stroke="#352B1F" stroke-linecap="round"/>
<path d="M3.35291 11.6765H7.47055" stroke="#352B1F" stroke-linecap="round"/>
<path d="M5.11768 14.1176C4.84153 14.1176 4.61768 14.3415 4.61768 14.6176C4.61768 14.8938 4.84153 15.1176 5.11768 15.1176V14.1176ZM8.64709 15.1176H9.14709V14.1176H8.64709V15.1176ZM5.11768 15.1176H8.64709V14.1176H5.11768V15.1176Z" fill="#352B1F"/>
<path d="M1 18.1471H5.11765" stroke="#352B1F" stroke-linecap="round"/>
<path d="M2.76477 20.5882C2.48863 20.5882 2.26477 20.8121 2.26477 21.0882C2.26477 21.3644 2.48863 21.5882 2.76477 21.5882V20.5882ZM8.05889 21.5882H8.55889V20.5882H8.05889V21.5882ZM2.76477 21.5882H8.05889V20.5882H2.76477V21.5882Z" fill="#352B1F"/>
<path d="M3.94128 24.6176H6.88246" stroke="#352B1F" stroke-linecap="round"/>
<path d="M6.88232 27.5588H12.7647" stroke="#352B1F" stroke-linecap="round"/>
</svg>
