<svg width="26" height="32" viewBox="0 0 26 32" fill="none" xmlns="http://www.w3.org/2000/svg">
<path d="M16.9176 4.13916L17.6667 1.89179C17.7303 1.70098 17.9027 1.56343 18.1038 1.56333C19.25 1.56275 19.8079 2.09606 20.4191 3.3645C20.5504 3.63688 20.398 3.95841 20.1072 4.04147L17.5293 4.77804C17.1427 4.8885 16.7904 4.52061 16.9176 4.13916Z" stroke="#352B1F" stroke-linecap="round"/>
<path d="M14.8871 12.5386C14.3363 11.2265 13.9484 10.8974 13.1979 10.8122C13.1704 10.809 13.1419 10.8086 13.1143 10.8107C12.384 10.8679 12.0154 11.1331 11.7296 11.7229C11.5613 12.0703 11.0959 12.1805 10.8163 11.9144C9.29102 10.4621 8.34707 10.4967 6.90561 11.3289C6.84294 11.3651 6.78828 11.4161 6.74789 11.4761C5.85572 12.8027 5.76336 13.7124 7.28646 15.3307C7.56245 15.624 7.42579 16.1118 7.04269 16.2359C6.26256 16.4886 5.94304 16.8343 6.2216 17.6957C6.22903 17.7187 6.23895 17.7423 6.25008 17.7638C6.95162 19.1149 7.90059 19.0309 8.54091 19.4616" stroke="#352B1F" stroke-linecap="round"/>
<path d="M19.7258 11.7382C19.921 11.9334 20.2376 11.9334 20.4329 11.7382C20.6281 11.5429 20.6281 11.2263 20.4329 11.0311L19.7258 11.7382ZM12.6696 10.3456L12.7844 10.8322L13.7577 10.6026L13.6429 10.116L12.6696 10.3456ZM14.6901 5.99541L14.3366 6.34897L14.6901 5.99541ZM13.9561 6.02044L13.5797 5.69134L13.9561 6.02044ZM20.4329 11.0311L15.0437 5.64186L14.3366 6.34897L19.7258 11.7382L20.4329 11.0311ZM13.5797 5.69134C13.09 6.25147 12.6605 6.7588 12.4774 7.48703C12.2968 8.20537 12.3694 9.07274 12.6696 10.3456L13.6429 10.116C13.3508 8.87725 13.3277 8.20637 13.4472 7.73089C13.5643 7.26531 13.8309 6.92325 14.3325 6.34954L13.5797 5.69134ZM15.0437 5.64186C14.6332 5.23142 13.9607 5.25556 13.5797 5.69134L14.3325 6.34954C14.3331 6.34892 14.3333 6.34879 14.3332 6.34889C14.3331 6.34892 14.3331 6.34895 14.333 6.34899C14.333 6.349 14.333 6.34901 14.3329 6.34902C14.3329 6.34903 14.3329 6.34903 14.3329 6.34903C14.3329 6.34904 14.3329 6.34904 14.3329 6.34904C14.333 6.34902 14.3337 6.34872 14.3349 6.34868C14.3362 6.34864 14.3368 6.34888 14.3367 6.34883C14.3361 6.3486 14.3359 6.34827 14.3366 6.34897L15.0437 5.64186Z" fill="#352B1F"/>
<path d="M6.2332 13.6923C4.09536 13.5093 3.70827 14.113 4.30967 16.013C4.40339 16.309 4.22067 16.623 3.92042 16.7023C2.90555 16.9705 2.53318 17.3963 2.21952 18.2399C2.2029 18.2845 2.193 18.3322 2.19129 18.3799C2.15312 19.4422 2.70883 19.8938 3.92551 20.6154M17.7717 9.07695C18.4766 8.2507 18.9474 7.93033 20.0218 7.92319C20.0598 7.92293 20.0987 7.92755 20.1356 7.93657C21.3922 8.24398 21.7756 8.74648 21.8102 10.2308" stroke="#352B1F" stroke-linecap="round"/>
<path d="M23.5409 10.2306C23.6388 9.27292 23.4055 8.54411 22.859 7.92294M21.8101 6.7691C20.0398 5.89407 18.6798 5.66537 17 7.50001" stroke="#352B1F" stroke-linecap="round"/>
<path d="M15.1756 8.78845H14.5986" stroke="#352B1F" stroke-linecap="round"/>
<path d="M10.2716 4.46155H9.6947" stroke="#352B1F" stroke-linecap="round"/>
<path d="M9.69472 6.76924L9.1178 6.19232" stroke="#352B1F" stroke-linecap="round"/>
<path d="M7.38708 7.34615V6.76923" stroke="#352B1F" stroke-linecap="round"/>
<path d="M16.0409 10.2308L15.464 10.8077" stroke="#352B1F" stroke-linecap="round"/>
<path d="M1.48982 22.9231C2.30608 26.1655 3.85986 28.3316 7.8392 30.9192C7.91973 30.9716 8.01505 31 8.1111 31H17.0582C17.1476 31 17.2367 30.9753 17.3135 30.9295C22.1648 28.0359 23.9299 25.0843 24.1042 21.1211C24.1164 20.8432 23.8907 20.6154 23.6125 20.6154H1.62234C1.31636 20.6154 1.08172 20.8879 1.13269 21.1896C1.23624 21.8026 1.35261 22.378 1.48982 22.9231ZM1.48982 22.9231H17.1947M23.8974 22.9231H20.0794" stroke="#352B1F" stroke-linecap="round"/>
<path d="M10.2717 20.0385C10.2717 20.0385 10.2716 18.3077 12.0024 18.3077C13.7332 18.3077 13.7332 20.0385 13.7332 20.0385M8.54089 20.0385C8.54089 20.0385 8.54089 16.5769 12.0024 16.5769C15.464 16.5769 15.464 20.0385 15.464 20.0385" stroke="#352B1F" stroke-linecap="round"/>
<path d="M21.8101 20.0385L16.2913 14.5196C16.1413 14.3696 15.9073 14.325 15.7408 14.4565C14.575 15.3773 14.8871 17.7308 14.8871 17.7308" stroke="#352B1F" stroke-linecap="round"/>
<path d="M18.9255 16.5769L21.2332 14.2692" stroke="#352B1F" stroke-linecap="round"/>
<path d="M18.3486 20.6153C16.9881 18.8618 16.894 17.3683 17.7717 15.9999M22.964 20.6153L22.5715 19.4379C22.4746 19.147 22.6609 18.8395 22.9612 18.7776C24.3955 18.4822 24.9961 18.1014 25.2448 17.2526C25.2638 17.1878 25.2666 17.1192 25.2545 17.0527C25.137 16.4082 24.9065 16.0316 24.326 15.7308C23.9886 15.556 23.8761 15.1005 24.1265 14.8148C25.2191 13.5682 25.3285 12.5965 24.7512 10.9636C24.7154 10.8623 24.6463 10.7753 24.5549 10.7188C23.1111 9.82639 22.1455 10.0185 20.5417 11.5132C20.3031 11.7355 19.9188 11.6878 19.7419 11.4139C19.1545 10.505 18.7365 10.1658 17.8529 10.2243C17.7993 10.2279 17.7463 10.2414 17.6977 10.2641C16.9594 10.607 16.6538 11.0866 16.6112 12.2658C16.5974 12.6466 16.2027 12.8959 15.8442 12.7667C15.2589 12.5558 14.8061 12.5763 14.3543 13.066C14.3246 13.0981 14.2999 13.1361 14.2812 13.1755C13.467 14.8901 13.987 15.7068 14.8871 17.1538" stroke="#352B1F" stroke-linecap="round"/>
<path d="M10.3524 1.49625L4.39289 7.45572C4.15841 7.6902 4.21351 8.08492 4.50732 8.23867C6.9322 9.50761 8.42029 9.62798 10.7688 7.97954C10.821 7.94294 10.8671 7.89444 10.9011 7.84056C12.4372 5.40545 12.2054 3.93118 11.1498 1.63489C11.0063 1.32271 10.5953 1.2533 10.3524 1.49625Z" stroke="#352B1F" stroke-linecap="round"/>
<path d="M12.0024 16.5769L9.6947 14.2692" stroke="#352B1F" stroke-linecap="round"/>
<path d="M3.92553 16.5769C2.59846 15.0889 1.73134 14.261 2.75093 12.5725C2.76437 12.5503 2.78056 12.528 2.79758 12.5084C3.86842 11.2714 4.68028 11.363 6.23323 11.9615" stroke="#352B1F" stroke-linecap="round"/>
<path d="M2.77166 17.154C0.980512 15.8815 0.298815 15.4418 1.01344 12.0888C1.03092 12.0068 1.07019 11.9278 1.12568 11.865C2.77428 9.99756 4.10206 9.342 6.81012 10.8079" stroke="#352B1F" stroke-linecap="round"/>
</svg>
