<svg width="29" height="27" viewBox="0 0 29 27" fill="none" xmlns="http://www.w3.org/2000/svg">
<path d="M17.12 10.8801C13.9211 8.26519 16.1012 2.20606 26.9874 1.0519C27.273 1.02162 27.5256 1.24141 27.5219 1.52859C27.4915 3.85998 26.9499 13.1044 20.2666 13.0086C20.1031 13.0063 19.9402 13.0767 19.8415 13.2072C17.2313 16.6601 15.4283 21.0312 12.8846 26.1188C12.7015 26.4851 12.1805 26.484 11.9985 26.1171C8.48603 19.034 6.08604 12.8477 1.29686 7.07381C1.13064 6.87342 1.14175 6.57832 1.32585 6.39421L3.18893 4.53098C3.40526 4.31463 3.76398 4.34211 3.94374 4.58967C7.72345 9.79502 9.71283 13.8689 12.0059 19.2209C12.1755 19.6165 12.7344 19.6285 12.9234 19.2418C16.2568 12.4218 19.0036 8.18449 24.4 3.59997" stroke="#352B1F" stroke-linecap="round"/>
</svg>
